# xmcd
#
# Track frame offsets: 
#        150
#        25978
#        51461
#        77635
#        114561
#        139454
#        164100
#        200501
#
# Disc length: 3075 seconds
#
# Revision: 0
# Processed by: cddbd v1.5.2PL0 Copyright (c) Steve Scherf et al.
# Submitted via: ExactAudioCopy v1.3
#
DISCID=770c0108
DTITLE=Gerry Joe Weise - Live And Lost In The Netherland
DYEAR=2018
DGENRE=Blues Rock
TTITLE0=Down Chicago Way
TTITLE1=Espresso
TTITLE2=All Blues
TTITLE3=Aussie Boogie
TTITLE4=B Good 2 Me
TTITLE5=Blueswalker
TTITLE6=Voodoo Child (Slight Return)
TTITLE7=Steamroller
EXTD=
EXTT0=
EXTT1=
EXTT2=
EXTT3=
EXTT4=
EXTT5=
EXTT6=
EXTT7=
PLAYORDER=
